<svg width="28" height="28" viewBox="0 0 28 28" fill="none" xmlns="http://www.w3.org/2000/svg">
<path d="M14 15C12.9122 15 11.8488 14.6774 10.9444 14.0731C10.0399 13.4687 9.33494 12.6098 8.91866 11.6048C8.50238 10.5998 8.39346 9.4939 8.60568 8.42701C8.8179 7.36011 9.34172 6.3801 10.1109 5.61092C10.8801 4.84173 11.8601 4.3179 12.927 4.10568C13.9939 3.89346 15.0998 4.00238 16.1048 4.41866C17.1098 4.83495 17.9687 5.5399 18.5731 6.44437C19.1774 7.34884 19.5 8.4122 19.5 9.5C19.5 10.9587 18.9205 12.3576 17.8891 13.3891C16.8576 14.4205 15.4587 15 14 15ZM14 5C13.11 5 12.24 5.26392 11.4999 5.75839C10.7599 6.25286 10.1831 6.95566 9.84254 7.77793C9.50195 8.60019 9.41283 9.50499 9.58647 10.3779C9.7601 11.2508 10.1887 12.0526 10.818 12.682C11.4474 13.3113 12.2492 13.7399 13.1221 13.9135C13.995 14.0872 14.8998 13.9981 15.7221 13.6575C16.5443 13.3169 17.2471 12.7401 17.7416 12.0001C18.2361 11.26 18.5 10.39 18.5 9.5C18.5 8.30653 18.0259 7.16194 17.182 6.31802C16.3381 5.47411 15.1935 5 14 5ZM22.5 24C22.3674 24 22.2402 23.9473 22.1464 23.8536C22.0527 23.7598 22 23.6326 22 23.5V21.5C22.0001 20.8242 21.772 20.1683 21.3528 19.6383C20.9335 19.1083 20.3476 18.7354 19.69 18.58C15.9394 17.775 12.0606 17.775 8.31 18.58C7.65236 18.7354 7.06646 19.1083 6.64721 19.6383C6.22795 20.1683 5.9999 20.8242 6 21.5V23.5C6 23.6326 5.94732 23.7598 5.85355 23.8536C5.75979 23.9473 5.63261 24 5.5 24C5.36739 24 5.24021 23.9473 5.14645 23.8536C5.05268 23.7598 5 23.6326 5 23.5V21.5C5.00168 20.5969 5.30895 19.7209 5.87182 19.0145C6.43468 18.3082 7.22001 17.8132 8.1 17.61C11.9893 16.7776 16.0107 16.7776 19.9 17.61C20.7817 17.8136 21.5682 18.3101 22.1313 19.0185C22.6943 19.7268 23.0006 20.6051 23 21.51V23.51C22.9974 23.6409 22.9436 23.7655 22.8501 23.8571C22.7566 23.9487 22.6309 24 22.5 24Z" fill="white"/>
</svg>
