<svg width="40" height="40" viewBox="0 0 40 40" fill="none" xmlns="http://www.w3.org/2000/svg">
<path d="M20 39.5C16.1433 39.5 12.3731 38.3564 9.16639 36.2137C5.95963 34.071 3.46027 31.0255 1.98436 27.4623C0.508449 23.8992 0.122284 19.9784 0.874696 16.1957C1.62711 12.4131 3.4843 8.93855 6.21143 6.21143C8.93855 3.4843 12.4131 1.62711 16.1957 0.874696C19.9784 0.122284 23.8992 0.508449 27.4623 1.98436C31.0255 3.46027 34.071 5.95963 36.2137 9.16639C38.3564 12.3731 39.5 16.1433 39.5 20C39.4947 25.1701 37.4386 30.1269 33.7827 33.7827C30.1269 37.4386 25.1701 39.4947 20 39.5ZM20 3.50001C16.7366 3.50001 13.5465 4.46772 10.8331 6.28076C8.11969 8.0938 6.00484 10.6708 4.756 13.6857C3.50715 16.7007 3.1804 20.0183 3.81705 23.219C4.45371 26.4197 6.02518 29.3597 8.33275 31.6673C10.6403 33.9748 13.5803 35.5463 16.781 36.183C19.9817 36.8196 23.2993 36.4929 26.3143 35.244C29.3293 33.9952 31.9062 31.8803 33.7193 29.1669C35.5323 26.4535 36.5 23.2634 36.5 20C36.4947 15.6256 34.7546 11.4318 31.6614 8.33859C28.5682 5.24539 24.3745 3.5053 20 3.50001V3.50001Z" fill="white"/>
<path d="M20.0001 30.92C17.8403 30.92 15.729 30.2796 13.9333 29.0797C12.1375 27.8798 10.7378 26.1743 9.91132 24.1789C9.08481 22.1836 8.86856 19.9879 9.28991 17.8696C9.71126 15.7514 10.7513 13.8056 12.2785 12.2784C13.8057 10.7512 15.7514 9.7112 17.8697 9.28985C19.988 8.8685 22.1836 9.08475 24.179 9.91126C26.1744 10.7378 27.8798 12.1374 29.0797 13.9332C30.2796 15.729 30.9201 17.8403 30.9201 20C30.9148 22.8946 29.7626 25.669 27.7159 27.7158C25.6691 29.7625 22.8946 30.9147 20.0001 30.92V30.92ZM20.0001 12C18.4178 12 16.8711 12.4692 15.5555 13.3483C14.2399 14.2273 13.2145 15.4767 12.609 16.9386C12.0035 18.4004 11.8451 20.0089 12.1538 21.5607C12.4625 23.1126 13.2244 24.5381 14.3432 25.6569C15.462 26.7757 16.8875 27.5376 18.4394 27.8463C19.9912 28.155 21.5997 27.9966 23.0616 27.3911C24.5234 26.7856 25.7728 25.7602 26.6518 24.4446C27.5309 23.129 28.0001 21.5823 28.0001 20C28.0001 17.8783 27.1572 15.8435 25.6569 14.3432C24.1566 12.8429 22.1218 12 20.0001 12V12Z" fill="white"/>
<path d="M38 21.5H2C1.60218 21.5 1.22064 21.342 0.93934 21.0607C0.658035 20.7794 0.5 20.3978 0.5 20C0.5 19.6022 0.658035 19.2206 0.93934 18.9393C1.22064 18.658 1.60218 18.5 2 18.5H38C38.3978 18.5 38.7794 18.658 39.0607 18.9393C39.342 19.2206 39.5 19.6022 39.5 20C39.5 20.3978 39.342 20.7794 39.0607 21.0607C38.7794 21.342 38.3978 21.5 38 21.5Z" fill="white"/>
<path d="M20 39.5C19.6038 39.4948 19.2253 39.3351 18.9451 39.0549C18.6649 38.7747 18.5052 38.3962 18.5 38V2C18.5 1.60218 18.658 1.22064 18.9393 0.93934C19.2206 0.658035 19.6022 0.5 20 0.5C20.3978 0.5 20.7794 0.658035 21.0607 0.93934C21.342 1.22064 21.5 1.60218 21.5 2V38C21.4948 38.3962 21.3351 38.7747 21.0549 39.0549C20.7747 39.3351 20.3962 39.4948 20 39.5Z" fill="white"/>
</svg>
