<svg width="44" height="40" viewBox="0 0 44 40" fill="none" xmlns="http://www.w3.org/2000/svg">
<path d="M12 39.5C10.5413 39.5 9.14236 38.9205 8.11091 37.8891C7.07946 36.8576 6.5 35.4587 6.5 34V26C6.5 24.5413 7.07946 23.1424 8.11091 22.1109C9.14236 21.0795 10.5413 20.5 12 20.5C13.4587 20.5 14.8576 21.0795 15.8891 22.1109C16.9205 23.1424 17.5 24.5413 17.5 26V34C17.5 35.4587 16.9205 36.8576 15.8891 37.8891C14.8576 38.9205 13.4587 39.5 12 39.5ZM12 23.5C11.337 23.5 10.7011 23.7634 10.2322 24.2322C9.76339 24.7011 9.5 25.337 9.5 26V34C9.5 34.663 9.76339 35.2989 10.2322 35.7678C10.7011 36.2366 11.337 36.5 12 36.5C12.663 36.5 13.2989 36.2366 13.7678 35.7678C14.2366 35.2989 14.5 34.663 14.5 34V26C14.5 25.337 14.2366 24.7011 13.7678 24.2322C13.2989 23.7634 12.663 23.5 12 23.5V23.5Z" fill="white"/>
<path d="M32 39.5C30.5413 39.5 29.1424 38.9205 28.1109 37.8891C27.0795 36.8576 26.5 35.4587 26.5 34V26C26.5 24.5413 27.0795 23.1424 28.1109 22.1109C29.1424 21.0795 30.5413 20.5 32 20.5C33.4587 20.5 34.8576 21.0795 35.8891 22.1109C36.9205 23.1424 37.5 24.5413 37.5 26V34C37.5 35.4587 36.9205 36.8576 35.8891 37.8891C34.8576 38.9205 33.4587 39.5 32 39.5ZM32 23.5C31.337 23.5 30.7011 23.7634 30.2322 24.2322C29.7634 24.7011 29.5 25.337 29.5 26V34C29.5 34.663 29.7634 35.2989 30.2322 35.7678C30.7011 36.2366 31.337 36.5 32 36.5C32.663 36.5 33.2989 36.2366 33.7678 35.7678C34.2366 35.2989 34.5 34.663 34.5 34V26C34.5 25.337 34.2366 24.7011 33.7678 24.2322C33.2989 23.7634 32.663 23.5 32 23.5Z" fill="white"/>
<path d="M42 31.5C41.6038 31.4948 41.2253 31.3351 40.9451 31.0549C40.6649 30.7747 40.5052 30.3962 40.5 30V22C40.5 17.0935 38.5509 12.3879 35.0815 8.91852C31.6121 5.4491 26.9065 3.5 22 3.5C17.0935 3.5 12.3879 5.4491 8.91852 8.91852C5.4491 12.3879 3.5 17.0935 3.5 22V30C3.5 30.3978 3.34196 30.7794 3.06066 31.0607C2.77936 31.342 2.39782 31.5 2 31.5C1.60218 31.5 1.22064 31.342 0.93934 31.0607C0.658035 30.7794 0.5 30.3978 0.5 30V22C0.5 16.2978 2.76517 10.8292 6.7972 6.7972C10.8292 2.76517 16.2978 0.5 22 0.5C27.7022 0.5 33.1708 2.76517 37.2028 6.7972C41.2348 10.8292 43.5 16.2978 43.5 22V30C43.4948 30.3962 43.3351 30.7747 43.0549 31.0549C42.7747 31.3351 42.3962 31.4948 42 31.5V31.5Z" fill="white"/>
</svg>
