<svg width="36" height="44" viewBox="0 0 36 44" fill="none" xmlns="http://www.w3.org/2000/svg">
<path d="M28 43.42H7.99996C6.0177 43.4307 4.11183 42.6562 2.69894 41.2658C1.28606 39.8754 0.481077 37.9822 0.459961 36V8C0.481077 6.01783 1.28606 4.12463 2.69894 2.73423C4.11183 1.34383 6.0177 0.569319 7.99996 0.580004H28C29.9822 0.569319 31.8881 1.34383 33.301 2.73423C34.7139 4.12463 35.5188 6.01783 35.54 8V36C35.5188 37.9822 34.7139 39.8754 33.301 41.2658C31.8881 42.6562 29.9822 43.4307 28 43.42V43.42ZM7.99996 3.58C6.81331 3.56927 5.67045 4.0277 4.82017 4.85551C3.96988 5.68332 3.48101 6.81349 3.45996 8V36C3.48101 37.1865 3.96988 38.3167 4.82017 39.1445C5.67045 39.9723 6.81331 40.4307 7.99996 40.42H28C29.1866 40.4307 30.3295 39.9723 31.1798 39.1445C32.03 38.3167 32.5189 37.1865 32.54 36V8C32.5189 6.81349 32.03 5.68332 31.1798 4.85551C30.3295 4.0277 29.1866 3.56927 28 3.58H7.99996Z" fill="white"/>
<path d="M17.9998 30.64C17.7615 30.6425 17.5262 30.5874 17.3138 30.4795C17.1014 30.3715 16.9182 30.2139 16.7798 30.02L11.6397 22.88C11.4543 22.624 11.3545 22.3161 11.3545 22C11.3545 21.6839 11.4543 21.376 11.6397 21.12L16.7798 14C16.916 13.8024 17.0982 13.6409 17.3107 13.5294C17.5233 13.4179 17.7597 13.3598 17.9998 13.36V13.36C18.238 13.3575 18.4733 13.4126 18.6857 13.5205C18.8981 13.6285 19.0813 13.7861 19.2197 13.98L24.3598 21.12C24.5452 21.376 24.645 21.6839 24.645 22C24.645 22.3161 24.5452 22.624 24.3598 22.88L19.2197 30C19.0835 30.1976 18.9013 30.3591 18.6888 30.4706C18.4762 30.5821 18.2398 30.6402 17.9998 30.64V30.64ZM14.6998 22L17.9998 26.58L21.2997 22L17.9998 17.42L14.6998 22Z" fill="white"/>
</svg>
