<svg width="42" height="35" viewBox="0 0 42 35" fill="none" xmlns="http://www.w3.org/2000/svg">
<path d="M33.8604 35C28.1204 35 25.1204 29.66 24.1004 27.36H17.9004C16.8804 29.74 13.8804 35 8.14035 35C0.360352 35 0.360352 28.46 0.360352 25.68C0.360352 22.3 5.76035 11.68 6.84035 9.68C6.98563 9.46026 7.18553 9.28204 7.42045 9.16283C7.65536 9.04362 7.91722 8.98751 8.18035 9H33.8204C34.0972 9.00168 34.3683 9.07895 34.6045 9.22346C34.8407 9.36797 35.0329 9.57424 35.1604 9.82C36.2404 11.82 41.6404 22.46 41.6404 25.82C41.6404 28.54 41.6404 35 33.8604 35ZM16.8804 24.44H25.1204C25.4347 24.4372 25.7418 24.5345 25.9971 24.7179C26.2524 24.9013 26.4427 25.1612 26.5404 25.46C26.5404 25.46 28.8604 32.08 33.8604 32.08C38.3004 32.08 38.6404 29.46 38.6404 25.76C38.6404 23.92 35.4204 16.84 32.9004 11.92H9.10035C6.58035 16.84 3.36035 23.92 3.36035 25.76C3.36035 29.46 3.70035 32.08 8.14035 32.08C13.1404 32.08 15.4404 25.52 15.4604 25.46C15.558 25.1612 15.7483 24.9013 16.0036 24.7179C16.2589 24.5345 16.566 24.4372 16.8804 24.44V24.44Z" fill="white"/>
<path d="M21.0005 11.92C20.6501 11.9215 20.3103 11.8003 20.04 11.5774C19.7697 11.3546 19.5859 11.0442 19.5205 10.7C19.321 9.4093 19.381 8.0918 19.697 6.8246C20.0129 5.55739 20.5784 4.36594 21.3605 3.31997C22.444 2.17077 23.7728 1.28081 25.2479 0.716371C26.7231 0.151935 28.3066 -0.0724348 29.8805 0.0599716C30.0775 0.0599716 30.2725 0.0987704 30.4545 0.174152C30.6365 0.249534 30.8018 0.360024 30.9411 0.499311C31.0804 0.638599 31.1909 0.803958 31.2663 0.985946C31.3417 1.16793 31.3805 1.36299 31.3805 1.55997C31.3805 1.75695 31.3417 1.95201 31.2663 2.134C31.1909 2.31599 31.0804 2.48134 30.9411 2.62063C30.8018 2.75992 30.6365 2.87041 30.4545 2.94579C30.2725 3.02117 30.0775 3.05997 29.8805 3.05997C28.752 2.94497 27.612 3.07878 26.5408 3.45197C25.4696 3.82516 24.4932 4.42866 23.6805 5.21997C22.6588 6.65045 22.2289 8.42019 22.4805 10.16C22.515 10.3544 22.5108 10.5537 22.4681 10.7464C22.4254 10.9392 22.3451 11.1216 22.2317 11.2833C22.1184 11.4449 21.9743 11.5826 21.8076 11.6884C21.6409 11.7943 21.455 11.8662 21.2605 11.9L21.0005 11.92Z" fill="white"/>
</svg>
