<svg width="36" height="44" viewBox="0 0 36 44" fill="none" xmlns="http://www.w3.org/2000/svg">
<path d="M18.0001 29.62C17.7554 29.6196 17.5147 29.5578 17.3001 29.44C16.7201 29.14 11.6201 26.36 10.4601 22.4C10.0984 21.3803 9.97519 20.2912 10.1 19.2164C10.2248 18.1416 10.5943 17.1097 11.1801 16.2C11.6196 15.6175 12.1919 15.1483 12.8495 14.8318C13.507 14.5152 14.2306 14.3603 14.9601 14.38C16.0821 14.3566 17.1702 14.7646 18.0001 15.52C18.83 14.7646 19.9181 14.3566 21.0401 14.38C21.7696 14.3603 22.4932 14.5152 23.1507 14.8318C23.8083 15.1483 24.3806 15.6175 24.8201 16.2C25.4059 17.1097 25.7754 18.1416 25.9002 19.2164C26.025 20.2912 25.9018 21.3803 25.5401 22.4C24.3801 26.4 19.2801 29.14 18.7001 29.44C18.4855 29.5578 18.2448 29.6196 18.0001 29.62V29.62ZM14.9601 17.38C14.6966 17.3597 14.4322 17.4058 14.1911 17.5141C13.95 17.6224 13.7399 17.7895 13.5801 18C13.2812 18.5394 13.1047 19.138 13.0633 19.7533C13.0218 20.3685 13.1163 20.9854 13.3401 21.56C14.3529 23.6132 15.9822 25.2985 18.0001 26.38C20.0179 25.2985 21.6473 23.6132 22.6601 21.56C22.8839 20.9854 22.9784 20.3685 22.9369 19.7533C22.8955 19.138 22.719 18.5394 22.4201 18C22.2603 17.7895 22.0502 17.6224 21.8091 17.5141C21.568 17.4058 21.3036 17.3597 21.0401 17.38C20.8337 17.3772 20.6288 17.4164 20.438 17.4953C20.2472 17.5742 20.0745 17.6911 19.9304 17.8389C19.7863 17.9868 19.6738 18.1624 19.5999 18.3552C19.5259 18.5479 19.4919 18.7537 19.5001 18.96C19.5001 19.3579 19.3421 19.7394 19.0608 20.0207C18.7795 20.302 18.3979 20.46 18.0001 20.46C17.6023 20.46 17.2207 20.302 16.9394 20.0207C16.6581 19.7394 16.5001 19.3579 16.5001 18.96C16.5112 18.753 16.4793 18.5459 16.4064 18.3519C16.3335 18.1578 16.2211 17.9809 16.0764 17.8325C15.9317 17.684 15.7578 17.5671 15.5657 17.4893C15.3735 17.4114 15.1673 17.3742 14.9601 17.38V17.38Z" fill="white"/>
<path d="M28 43.42H7.99996C6.0177 43.4307 4.11183 42.6562 2.69894 41.2658C1.28606 39.8754 0.481077 37.9822 0.459961 36V8C0.481077 6.01783 1.28606 4.12463 2.69894 2.73423C4.11183 1.34383 6.0177 0.569319 7.99996 0.580004H28C29.9822 0.569319 31.8881 1.34383 33.301 2.73423C34.7139 4.12463 35.5188 6.01783 35.54 8V36C35.5188 37.9822 34.7139 39.8754 33.301 41.2658C31.8881 42.6562 29.9822 43.4307 28 43.42V43.42ZM7.99996 3.58C6.81331 3.56927 5.67045 4.0277 4.82017 4.85551C3.96988 5.68332 3.48101 6.81349 3.45996 8V36C3.48101 37.1865 3.96988 38.3167 4.82017 39.1445C5.67045 39.9723 6.81331 40.4307 7.99996 40.42H28C29.1866 40.4307 30.3295 39.9723 31.1798 39.1445C32.03 38.3167 32.5189 37.1865 32.54 36V8C32.5189 6.81349 32.03 5.68332 31.1798 4.85551C30.3295 4.0277 29.1866 3.56927 28 3.58H7.99996Z" fill="white"/>
</svg>
