<svg width="42" height="42" viewBox="0 0 42 42" fill="none" xmlns="http://www.w3.org/2000/svg">
<path d="M17.8008 19C17.6014 18.999 17.4042 18.9582 17.2208 18.88C17.0423 18.8041 16.8795 18.6956 16.7408 18.56C16.5984 18.4269 16.4889 18.2626 16.4208 18.08C16.3027 17.8062 16.2701 17.5032 16.3272 17.2105C16.3843 16.9179 16.5285 16.6493 16.7408 16.44C16.8795 16.3044 17.0423 16.1959 17.2208 16.12C17.4039 16.0408 17.6013 15.9999 17.8008 15.9999C18.0003 15.9999 18.1977 16.0408 18.3808 16.12C18.5593 16.1959 18.7221 16.3044 18.8608 16.44C19.1422 16.7211 19.3004 17.1023 19.3008 17.5C19.3014 17.6996 19.2605 17.8971 19.1808 18.08C19.1049 18.2585 18.9964 18.4213 18.8608 18.56C18.5797 18.8414 18.1985 18.9997 17.8008 19Z" fill="white"/>
<path d="M30.5805 19C30.3833 19.0021 30.1877 18.9641 30.0055 18.8885C29.8233 18.8129 29.6583 18.7011 29.5205 18.56C29.3789 18.4221 29.2636 18.2594 29.1805 18.08C29.1102 17.8942 29.0697 17.6985 29.0605 17.5C29.0684 17.0999 29.2337 16.719 29.5205 16.44C29.7282 16.2317 29.9932 16.0901 30.2818 16.0331C30.5703 15.9761 30.8693 16.0063 31.1405 16.12C31.319 16.1959 31.4818 16.3044 31.6205 16.44C31.9019 16.721 32.0602 17.1023 32.0605 17.5C32.0681 17.6982 32.034 17.8958 31.9605 18.08C31.8775 18.2594 31.7622 18.4221 31.6205 18.56C31.4818 18.6956 31.319 18.8041 31.1405 18.88C30.964 18.9576 30.7734 18.9984 30.5805 19V19Z" fill="white"/>
<path d="M17.8008 31C17.578 31.0011 17.3578 30.9527 17.1561 30.8581C16.9545 30.7635 16.7764 30.6252 16.6348 30.4532C16.4932 30.2812 16.3918 30.0799 16.3377 29.8638C16.2837 29.6477 16.2785 29.4222 16.3225 29.2039C16.3665 28.9855 16.4585 28.7797 16.592 28.6013C16.7255 28.423 16.897 28.2766 17.0941 28.1728C17.2912 28.069 17.5089 28.0104 17.7315 28.0013C17.954 27.9921 18.1759 28.0327 18.3808 28.12C18.5593 28.1959 18.7221 28.3044 18.8608 28.44C19.1417 28.7212 19.2995 29.1025 19.2995 29.5C19.2995 29.8975 19.1417 30.2787 18.8608 30.56C18.7221 30.6956 18.5593 30.8041 18.3808 30.88C18.1979 30.9597 18.0004 31.0006 17.8008 31V31Z" fill="white"/>
<path d="M30.5806 31C30.1829 30.9997 29.8016 30.8414 29.5206 30.56C29.3726 30.4276 29.2563 30.2636 29.1806 30.08C29.1008 29.8971 29.0599 29.6996 29.0606 29.5C29.0698 29.2076 29.1631 28.9241 29.3295 28.6835C29.4958 28.4429 29.728 28.2554 29.9983 28.1435C30.2686 28.0316 30.5654 28 30.8531 28.0526C31.1409 28.1052 31.4074 28.2397 31.6206 28.44C31.9019 28.7211 32.0602 29.1023 32.0606 29.5C32.0681 29.6982 32.034 29.8958 31.9606 30.08C31.8848 30.2636 31.7685 30.4276 31.6206 30.56C31.4875 30.7024 31.3231 30.8119 31.1406 30.88C30.9647 30.9599 30.7737 31.0008 30.5806 31V31Z" fill="white"/>
<path d="M34.2602 41.18H14.2602C12.2727 41.1747 10.3681 40.3829 8.96273 38.9775C7.55735 37.5721 6.76548 35.6675 6.7602 33.68V13.68C6.7388 11.6924 7.50522 9.77715 8.8919 8.35299C10.2786 6.92883 12.1727 6.11162 14.1602 6.08002H34.1602C36.1477 6.0853 38.0523 6.87717 39.4577 8.28255C40.8631 9.68793 41.6549 11.5925 41.6602 13.58V33.68C41.6552 35.6504 40.8771 37.54 39.4932 38.9426C38.1094 40.3452 36.2303 41.1486 34.2602 41.18V41.18ZM14.1602 9.00002C13.5625 8.99992 12.9707 9.11892 12.4194 9.35005C11.8682 9.58118 11.3685 9.91982 10.9496 10.3462C10.5307 10.7726 10.2009 11.2781 9.97951 11.8334C9.75812 12.3886 9.64958 12.9824 9.6602 13.58V33.68C9.6602 34.8735 10.1343 36.0181 10.9782 36.862C11.8221 37.7059 12.9667 38.18 14.1602 38.18H34.1602C35.3537 38.18 36.4983 37.7059 37.3422 36.862C38.1861 36.0181 38.6602 34.8735 38.6602 33.68V13.68C38.6843 13.0824 38.589 12.486 38.3799 11.9257C38.1708 11.3654 37.8521 10.8523 37.4424 10.4166C37.0327 9.98085 36.5403 9.63115 35.9939 9.38792C35.4475 9.14469 34.8581 9.01282 34.2602 9.00002H14.1602Z" fill="white"/>
<path d="M8.22047 35.9H7.74047C5.75297 35.8947 3.84838 35.1029 2.443 33.6975C1.03762 32.2921 0.245753 30.3875 0.240474 28.4V8.40001C0.232564 7.40911 0.420574 6.42642 0.793695 5.50842C1.16682 4.59042 1.71769 3.75522 2.41466 3.05082C3.11162 2.34642 3.94093 1.78671 4.85492 1.40387C5.76891 1.02103 6.74955 0.822609 7.74047 0.820006H27.7405C29.5752 0.812694 31.3483 1.48176 32.7208 2.69931C34.0933 3.91686 34.969 5.59751 35.1805 7.42001C35.2167 7.81068 35.0985 8.2 34.851 8.5045C34.6036 8.809 34.2467 9.00444 33.8569 9.04892C33.4671 9.09339 33.0754 8.98337 32.7657 8.74242C32.4561 8.50148 32.2532 8.1488 32.2005 7.76001C32.082 6.66031 31.5608 5.64333 30.7374 4.90484C29.914 4.16636 28.8465 3.75858 27.7405 3.76001H7.74047C7.14444 3.75995 6.55434 3.87831 6.00443 4.1082C5.45451 4.33809 4.95575 4.67493 4.53709 5.09917C4.11843 5.52341 3.78823 6.02659 3.56564 6.5795C3.34306 7.13241 3.23253 7.72403 3.24047 8.32001V28.32C3.21622 28.9259 3.31468 29.5305 3.52994 30.0974C3.7452 30.6643 4.07282 31.1819 4.49312 31.619C4.91343 32.0561 5.41774 32.4038 5.97578 32.6411C6.53382 32.8784 7.13407 33.0005 7.74047 33H8.22047C8.6183 33 8.99983 33.158 9.28113 33.4393C9.56244 33.7207 9.72047 34.1022 9.72047 34.5C9.72047 34.8978 9.56244 35.2794 9.28113 35.5607C8.99983 35.842 8.6183 36 8.22047 36V35.9Z" fill="white"/>
</svg>
