<svg width="46" height="46" viewBox="0 0 46 46" fill="none" xmlns="http://www.w3.org/2000/svg">
<rect width="46" height="46" rx="11.5" fill="#FF9900"/>
<path d="M23.1446 13.473C21.0136 15.3407 21.0044 11.6168 23.1446 13.473V13.473ZM23.1613 13.4561C21.2933 11.3252 25.0181 11.3159 23.1613 13.4561V13.4561ZM24.5209 12.9984C24.7209 13.1103 24.8048 13.3434 24.7739 13.5578C24.711 13.9892 24.18 14.3419 23.1778 13.473C23.8155 12.914 24.2642 12.8546 24.5209 12.9984ZM23.1611 13.4898C25.0294 15.6206 21.3045 15.6299 23.1611 13.4898V13.4898ZM15.5511 19.3869C15.5511 19.3869 15.7831 20.2759 15.4932 20.8943C15.4932 20.8943 16.4015 20.9523 16.962 19.4835C17.5224 18.0147 17.0586 17.5061 18.1022 16.195C19.1459 14.8839 21.8691 15.1304 23.1551 16.8697C24.6181 16.8697 25.8039 18.0556 25.8039 19.5186C25.8039 20.4635 25.3076 21.2905 24.5629 21.7594C24.4728 21.8215 24.4078 21.8578 24.3845 21.8668C24.384 21.8671 24.3837 21.8672 24.3837 21.8672C24.3783 21.8693 24.3749 21.8705 24.3749 21.8705L24.375 21.8713C24.2346 21.9258 24.1032 22.032 24.0128 22.1791C23.8278 22.4801 23.9979 22.7552 24.2515 22.8928C24.3794 22.9623 24.5331 22.9625 24.6778 22.9078C25.3123 22.6375 25.779 22.1327 26.0801 21.5329C26.2087 21.6452 26.3971 21.6714 26.5757 21.6334C26.7181 21.6029 26.8352 21.5035 26.9097 21.3678C27.3045 20.5732 27.2393 19.6635 26.9005 18.8629C27.1913 18.974 27.4284 18.7924 27.537 18.5433C27.5951 18.4098 27.5822 18.2566 27.5151 18.1171C26.7109 16.6051 24.5632 16.2279 23.1552 16.8697C24.4412 15.1304 27.1645 14.8839 28.2082 16.195C29.2518 17.5061 28.7879 18.0147 29.3484 19.4835C29.9088 20.9523 30.8172 20.8943 30.8172 20.8943C30.5273 20.2759 30.7592 19.3869 30.7592 19.3869C31.6675 22.9429 33.4969 21.5506 33.4969 21.5506C30.2799 15.8198 23.1552 10.1199 23.1552 10.1199C23.1552 10.1199 16.0305 15.8198 12.8135 21.5506C12.8135 21.5506 14.6428 22.9429 15.5511 19.3869Z" fill="white"/>
<path d="M18.7961 18.1172C18.7289 18.2566 18.7162 18.4097 18.7743 18.5432C18.8828 18.7925 19.1199 18.9741 19.4107 18.8628C19.072 19.6635 19.0068 20.5732 19.4015 21.3678C19.4761 21.5035 19.5932 21.6029 19.7355 21.6334C19.9141 21.6714 20.1025 21.6453 20.2311 21.5329C20.5322 22.1327 20.9989 22.6375 21.6334 22.9077C21.7782 22.9625 21.9319 22.9622 22.0598 22.8928C22.3135 22.7553 22.4835 22.4802 22.2986 22.1791C22.2082 22.032 22.0765 21.9258 21.9363 21.8713L21.9364 21.8706C21.9364 21.8706 21.933 21.8693 21.9275 21.8672C21.9275 21.8672 21.9272 21.867 21.9267 21.8667C21.9034 21.8578 21.8383 21.8213 21.7482 21.7593C21.0036 21.2905 20.5073 20.4634 20.5073 19.5185C20.5073 18.0556 21.6932 16.8698 23.1561 16.8698C21.7479 16.2279 19.6004 16.6051 18.7961 18.1172Z" fill="white"/>
<path d="M14.8004 22.1542C14.7475 22.2815 14.8081 22.4271 14.9351 22.4801C15.0625 22.5328 15.2082 22.4724 15.261 22.3452C15.3137 22.218 15.2534 22.0721 15.1263 22.0193C14.9991 21.9668 14.8531 22.027 14.8004 22.1542Z" fill="#FF9900"/>
<path d="M15.9996 21.6842C15.9117 21.8961 16.0122 22.1392 16.2241 22.2273C16.436 22.3151 16.6791 22.2146 16.767 22.0027C16.855 21.7905 16.7544 21.5475 16.5425 21.4595C16.3305 21.3718 16.0875 21.472 15.9996 21.6842Z" fill="#FF9900"/>
<path d="M17.3928 20.6771C17.2599 20.9974 17.412 21.3646 17.7324 21.4976C18.0526 21.6306 18.4202 21.4786 18.5531 21.1584C18.686 20.838 18.534 20.4707 18.2136 20.3377C17.8932 20.2049 17.5257 20.3568 17.3928 20.6771Z" fill="#FF9900"/>
<path d="M31.3762 22.4801C31.5033 22.427 31.5638 22.2815 31.511 22.1542C31.4582 22.027 31.3123 21.9667 31.1851 22.0194C31.058 22.0721 30.9975 22.218 31.0504 22.3453C31.1031 22.4724 31.2489 22.5328 31.3762 22.4801Z" fill="#FF9900"/>
<path d="M30.0864 22.2273C30.2984 22.1393 30.3989 21.8961 30.311 21.6842C30.223 21.4721 29.9801 21.3718 29.768 21.4596C29.5561 21.5476 29.4556 21.7905 29.5435 22.0027C29.6314 22.2146 29.8745 22.315 30.0864 22.2273Z" fill="#FF9900"/>
<path d="M28.5788 21.4976C28.8991 21.3646 29.0513 20.9974 28.9183 20.6771C28.7854 20.3568 28.418 20.2048 28.0976 20.3377C27.7771 20.4707 27.6252 20.838 27.758 21.1584C27.891 21.4786 28.2586 21.6306 28.5788 21.4976Z" fill="#FF9900"/>
<path d="M24.984 20.1097C25.0433 19.9251 25.0762 19.7282 25.0762 19.5237C25.0762 19.3193 25.0433 19.1225 24.984 18.9378C24.8715 19.2398 24.4739 19.5237 23.6338 19.5237C24.4739 19.5237 24.8715 19.8079 24.984 20.1097Z" fill="#FF9900"/>
<path d="M21.7461 18.2385C22.0636 18.1869 22.507 18.39 22.9256 19.1154C22.5057 18.3878 22.5528 17.9017 22.7578 17.6532C22.3603 17.7387 22.0099 17.9482 21.7461 18.2385Z" fill="#FF9900"/>
<path d="M24.577 18.2385C24.3132 17.9482 23.9628 17.7387 23.5653 17.6532C23.7704 17.9017 23.8174 18.3878 23.3975 19.1154C23.8162 18.39 24.2594 18.1869 24.577 18.2385Z" fill="#FF9900"/>
<path d="M21.7461 20.8091C22.0099 21.0995 22.3603 21.309 22.7578 21.3944C22.5528 21.1461 22.5057 20.6596 22.9256 19.9324C22.507 20.6577 22.0636 20.861 21.7461 20.8091Z" fill="#FF9900"/>
<path d="M21.3393 18.9378C21.2798 19.1225 21.2471 19.3193 21.2471 19.5237C21.2471 19.7282 21.2798 19.9251 21.3393 20.1097C21.4516 19.8079 21.8493 19.5237 22.6894 19.5237C21.8493 19.5237 21.4516 19.2398 21.3393 18.9378Z" fill="#FF9900"/>
<path d="M24.577 20.8091C24.2594 20.861 23.8162 20.6577 23.3975 19.9324C23.8174 20.6596 23.7704 21.1461 23.5653 21.3944C23.9628 21.309 24.3132 21.0995 24.577 20.8091Z" fill="#FF9900"/>
<path d="M23.1616 19.8037C23.3161 19.8037 23.4414 19.6784 23.4414 19.5238C23.4414 19.3691 23.3161 19.2439 23.1616 19.2439C23.007 19.2439 22.8818 19.3691 22.8818 19.5238C22.8818 19.6784 23.007 19.8037 23.1616 19.8037Z" fill="white"/>
<path d="M23.1447 13.4731C21.0045 11.6169 21.0137 15.3407 23.1447 13.4731V13.4731Z" fill="#FF9900"/>
<path d="M23.1615 13.4562C25.0184 11.3159 21.2935 11.3253 23.1615 13.4562V13.4562Z" fill="#FF9900"/>
<path d="M23.1617 13.4898C21.3051 15.6299 25.03 15.6207 23.1617 13.4898V13.4898Z" fill="#FF9900"/>
<path d="M24.7738 13.5578C24.8047 13.3434 24.7208 13.1103 24.5208 12.9984C24.2641 12.8546 23.8154 12.914 23.1777 13.473C24.1799 14.3419 24.7109 13.9892 24.7738 13.5578Z" fill="#FF9900"/>
<path d="M15.817 25.4454C15.8526 25.3207 15.901 25.2229 15.9463 25.1504C16.1323 24.8527 16.447 24.6749 16.7881 24.6749C17.1511 24.6749 17.4848 24.8781 17.6586 25.2052C17.7071 25.2964 17.7562 25.4222 17.779 25.5826C17.882 25.5575 17.9771 25.5479 18.0618 25.5479C18.6235 25.5479 19.0635 25.9781 19.0635 26.5273C19.0635 26.8276 18.9283 27.1293 18.6417 27.3524C18.8715 27.5908 18.962 27.8717 18.9531 28.126C18.9348 28.6546 18.5012 29.0689 17.9661 29.069H17.9658C17.8534 29.069 17.7062 29.0505 17.5403 28.984C17.5047 29.1088 17.4564 29.2065 17.411 29.2791C17.225 29.5768 16.9103 29.7546 16.5693 29.7546C16.2063 29.7547 15.8728 29.5515 15.6989 29.2245C15.6504 29.1333 15.6013 29.0075 15.5784 28.8471C15.4754 28.8723 15.3805 28.8818 15.2957 28.8818H15.2955C14.928 28.8818 14.6024 28.698 14.4246 28.39C14.2475 28.0835 14.2494 27.7145 14.4294 27.4026C14.4842 27.3078 14.5734 27.189 14.7156 27.0774C14.4857 26.839 14.3952 26.558 14.404 26.3036C14.4225 25.7748 14.8562 25.3604 15.3914 25.3604C15.5038 25.3604 15.6511 25.3789 15.817 25.4454ZM13.6404 27.002C11.2772 26.8367 13.6506 31.7039 14.9753 29.74C13.6506 31.7039 19.0522 32.0818 18.0137 29.9525C19.0522 32.0818 22.0801 27.5923 19.7169 27.4274C22.0801 27.5923 19.707 22.7261 18.3821 24.6897C19.707 22.7261 14.3051 22.3473 15.3437 24.4772C14.3051 22.3473 11.2772 26.8367 13.6404 27.002Z" fill="white"/>
<path d="M30.9339 28.8818C30.849 28.8818 30.754 28.8723 30.651 28.8471C30.628 29.0074 30.579 29.1332 30.5305 29.2243C30.3567 29.5514 30.0232 29.7545 29.6602 29.7546H29.6601C29.319 29.7546 29.0044 29.5769 28.8184 29.2794C28.7731 29.2067 28.7247 29.1088 28.689 28.984C28.5231 29.0505 28.3758 29.069 28.2634 29.069C27.7283 29.069 27.2946 28.6549 27.2762 28.1263C27.2673 27.8719 27.3577 27.5911 27.5874 27.3527C27.3188 27.1416 27.1659 26.8438 27.1659 26.5274C27.1659 25.9782 27.6059 25.5479 28.1676 25.5479C28.2524 25.5479 28.3475 25.5575 28.4504 25.5826C28.4734 25.4222 28.5224 25.2964 28.5709 25.2052C28.7448 24.8781 29.0783 24.6749 29.4414 24.6749C29.7825 24.6749 30.0971 24.8527 30.2832 25.1504C30.3285 25.2229 30.3769 25.3207 30.4125 25.4454C30.5784 25.379 30.7256 25.3605 30.838 25.3605C31.3733 25.3605 31.8071 25.7748 31.8255 26.3036C31.8344 26.558 31.7438 26.8389 31.514 27.0773C31.8004 27.3004 31.9356 27.602 31.9356 27.9022C31.9356 28.4515 31.4957 28.8818 30.9339 28.8818ZM30.8858 24.4772C31.9243 22.3473 26.5224 22.7261 27.8474 24.6897C26.5224 22.7261 24.1494 27.5923 26.5125 27.4274C24.1494 27.5923 27.1773 32.0818 28.2157 29.9525C27.1773 32.0818 32.5788 31.7039 31.2542 29.74C32.5788 31.7039 34.9522 26.8366 32.589 27.002C34.9522 26.8366 31.9243 22.3473 30.8858 24.4772Z" fill="white"/>
<path d="M29.8182 27.6114C31.2645 29.755 28.2077 29.9692 29.3413 27.645C28.2077 29.9692 26.4943 27.4292 29.0741 27.2485C26.4943 27.4292 27.837 24.6748 29.2835 26.8183C27.837 24.6748 30.8941 24.4602 29.7605 26.7844C30.8941 24.4602 32.6075 27.001 30.028 27.1809C32.6075 27.001 31.2645 29.755 29.8182 27.6114ZM31.9357 27.9022C31.9357 27.6021 31.8005 27.3005 31.5141 27.0774C31.744 26.839 31.8345 26.558 31.8256 26.3036C31.8072 25.7748 31.3734 25.3605 30.8382 25.3605C30.7258 25.3605 30.5785 25.379 30.4126 25.4455C30.377 25.3207 30.3287 25.2229 30.2833 25.1504C30.0973 24.8527 29.7826 24.675 29.4415 24.675C29.0784 24.675 28.7449 24.8782 28.5711 25.2052C28.5226 25.2964 28.4735 25.4221 28.4505 25.5826C28.3475 25.5575 28.2526 25.5479 28.1677 25.5479C27.606 25.5479 27.166 25.9782 27.166 26.5274C27.166 26.8437 27.3189 27.1416 27.5875 27.3527C27.3578 27.5911 27.2674 27.872 27.2763 28.1263C27.2948 28.6549 27.7284 29.0691 28.2635 29.0691C28.3759 29.0691 28.5232 29.0506 28.6892 28.9841C28.7248 29.1089 28.7731 29.2068 28.8186 29.2794C29.0045 29.577 29.3192 29.7546 29.6602 29.7546H29.6604C30.0234 29.7546 30.3568 29.5514 30.5306 29.2243C30.5791 29.1332 30.6281 29.0075 30.6511 28.8472C30.7541 28.8723 30.8492 28.8819 30.9339 28.8819C31.4957 28.8819 31.9358 28.4515 31.9357 27.9022Z" fill="#FF9900"/>
<path d="M16.4699 26.7844C15.3363 24.4602 18.3935 24.6748 16.9469 26.8183C18.3935 24.6748 19.7361 27.4291 17.1563 27.2484C19.7361 27.4291 18.0227 29.9692 16.8891 27.6449C18.0227 29.9692 14.9659 29.7549 16.4122 27.6114C14.9659 29.7549 13.6229 27.001 16.2024 27.1809C13.6229 27.001 15.3363 24.4602 16.4699 26.7844ZM14.4049 26.3036C14.3961 26.5579 14.4865 26.839 14.7165 27.0774C14.5743 27.189 14.485 27.3078 14.4303 27.4026C14.2502 27.7144 14.2484 28.0836 14.4254 28.3901C14.6033 28.698 14.9289 28.8818 15.2963 28.8818H15.2965C15.3814 28.8818 15.4763 28.8723 15.5793 28.8472C15.6022 29.0076 15.6513 29.1333 15.6998 29.2246C15.8737 29.5516 16.2072 29.7547 16.5702 29.7546C16.9112 29.7546 17.2259 29.5768 17.4119 29.2791C17.4573 29.2065 17.5055 29.1088 17.5412 28.9841C17.7071 29.0505 17.8543 29.069 17.9667 29.069H17.967C18.5021 29.0689 18.9356 28.6547 18.954 28.126C18.9629 27.8718 18.8724 27.5908 18.6425 27.3524C18.9292 27.1293 19.0644 26.8276 19.0644 26.5273C19.0644 25.9781 18.6243 25.5479 18.0627 25.5479C17.9779 25.5479 17.8829 25.5575 17.78 25.5826C17.757 25.4221 17.7079 25.2964 17.6595 25.2052C17.4856 24.8781 17.152 24.6749 16.789 24.6749C16.4478 24.6749 16.1332 24.8526 15.9472 25.1504C15.9019 25.223 15.8535 25.3207 15.8179 25.4455C15.6519 25.379 15.5047 25.3605 15.3923 25.3605C14.8571 25.3605 14.4234 25.7747 14.4049 26.3036Z" fill="#FF9900"/>
<path d="M34.0972 22.9014C34.0972 22.9014 33.4751 23.2558 33.8623 24.1123C33.5904 24.0976 33.3245 24.3903 33.639 24.832C34.0965 25.4747 34.619 26.4498 34.0984 28.5366C33.2538 30.6954 31.1523 32.2291 28.6978 32.2291C28.4559 32.2291 28.2214 32.2102 27.9939 32.1777C24.618 31.4369 24.5333 28.066 24.5333 28.066C23.9586 28.9683 24.4396 29.8447 24.4396 29.8447C24.4396 29.8447 23.454 29.12 23.6859 27.6125C23.9178 26.1051 23.1146 25.9167 23.1146 25.9167C23.1146 25.9167 22.3113 26.1051 22.5432 27.6125C22.7751 29.12 21.7894 29.8447 21.7894 29.8447C21.7894 29.8447 22.2705 28.9683 21.6957 28.066C21.6957 28.066 21.611 31.4369 18.2352 32.1777C18.0076 32.2102 17.7732 32.2291 17.5312 32.2291C15.0768 32.2291 12.9753 30.6954 12.1307 28.5366C11.6101 26.4498 12.1326 25.4747 12.5901 24.832C12.9045 24.3903 12.6387 24.0976 12.3667 24.1123C12.7539 23.2558 12.1319 22.9014 12.1319 22.9014C11.5925 24.1151 11.2695 25.31 11.2695 26.4313C11.2695 29.8895 14.073 32.693 17.5312 32.693C17.5338 32.693 17.5364 32.6928 17.539 32.6928C17.624 32.6927 17.7083 32.6904 17.7917 32.6863C17.8547 32.6831 17.9169 32.6783 17.9789 32.6729C17.996 32.6715 18.0134 32.6706 18.0305 32.6689C20.8274 32.4127 22.604 30.0903 22.604 30.0903C22.604 30.0903 21.2669 32.3669 20.5132 33.0338C20.5132 33.0338 21.5242 33.2789 22.3074 33.0709C21.0594 33.8028 19.9802 33.45 19.8781 33.4137L19.877 33.4133C19.8724 33.4116 19.8693 33.4107 19.8693 33.4107L19.8691 33.4112C19.7401 33.3646 19.5938 33.3653 19.4588 33.4258C19.183 33.5497 19.0599 33.8736 19.1836 34.1495C19.2323 34.2577 19.3122 34.3416 19.4074 34.3969C19.047 34.3977 18.8066 34.3493 18.7528 34.3369L18.7513 34.3368C18.7445 34.3352 18.7399 34.334 18.7399 34.334L18.7397 34.3349C18.5519 34.2914 18.3477 34.3168 18.1692 34.4239C17.8047 34.6431 17.6868 35.1163 17.9058 35.4808C18.0166 35.6645 18.1919 35.7854 18.3851 35.8321C19.6425 36.0789 20.805 35.5345 21.6966 34.6509C21.213 35.3732 20.8227 35.8917 20.8227 35.8917H23.1146H25.4064C25.4064 35.8917 25.016 35.3732 24.5324 34.651C25.424 35.5345 26.5866 36.0789 27.844 35.8321C28.0372 35.7854 28.2126 35.6645 28.3232 35.4808C28.5422 35.1163 28.4244 34.6431 28.0598 34.4239C27.8814 34.3168 27.6772 34.2914 27.4894 34.3349L27.4892 34.334C27.4892 34.334 27.4845 34.3352 27.4778 34.3368L27.4764 34.3369C27.4225 34.3493 27.182 34.3977 26.8216 34.3969C26.9169 34.3416 26.9967 34.2577 27.0454 34.1495C27.1693 33.8736 27.046 33.5497 26.7704 33.4258C26.6353 33.3653 26.4891 33.3646 26.36 33.4112L26.3598 33.4107C26.3598 33.4107 26.3567 33.4116 26.352 33.4133L26.351 33.4137C26.2489 33.45 25.1696 33.8028 23.9217 33.0709C24.7049 33.2789 25.7159 33.0338 25.7159 33.0338C24.9621 32.3669 23.625 30.0903 23.625 30.0903C23.625 30.0903 25.4018 32.4127 28.1986 32.6689C28.2157 32.6705 28.233 32.6716 28.2502 32.6729C28.3123 32.6781 28.3743 32.6833 28.4374 32.6863C28.5208 32.6902 28.6049 32.6927 28.69 32.6928C28.6927 32.6928 28.6952 32.693 28.6978 32.693C32.1561 32.693 34.9595 29.8895 34.9595 26.4313C34.9595 25.31 34.6365 24.1151 34.0972 22.9014Z" fill="white"/>
</svg>
