<svg width="34" height="41" viewBox="0 0 34 41" fill="none" xmlns="http://www.w3.org/2000/svg">
<path d="M28.4267 21.6662C28.4086 18.3069 29.9081 15.7714 32.9431 13.9041C31.245 11.4418 28.6796 10.0871 25.2922 9.82165C22.0855 9.56536 18.5808 11.7164 17.2981 11.7164C15.9431 11.7164 12.8358 9.91319 10.3969 9.91319C5.35654 9.99557 0 13.9865 0 22.1056C0 24.5038 0.433581 26.9813 1.30074 29.5382C2.45696 32.8975 6.63018 41.1356 10.9841 40.9983C13.2604 40.9434 14.8682 39.3598 17.831 39.3598C20.7035 39.3598 22.1939 40.9983 24.7322 40.9983C29.1222 40.9342 32.898 33.4467 34 30.0782C28.1105 27.2681 28.4267 21.8401 28.4267 21.6662ZM23.314 6.63625C25.78 3.67053 25.5542 0.970266 25.4819 0C23.305 0.128148 20.7848 1.50117 19.3486 3.19455C17.7678 5.00694 16.8374 7.24953 17.0361 9.77589C19.3937 9.95895 21.5436 8.73239 23.314 6.63625Z" fill="white"/>
</svg>
