<svg width="136" height="32" viewBox="0 0 136 32" fill="none" xmlns="http://www.w3.org/2000/svg">
<g clip-path="url(#clip0_601_6350)">
<path d="M13.3337 4H18.667C21.496 4 24.2091 5.12381 26.2095 7.12419C28.2099 9.12458 29.3337 11.8377 29.3337 14.6667C29.3337 17.4956 28.2099 20.2088 26.2095 22.2091C24.2091 24.2095 21.496 25.3333 18.667 25.3333V30C12.0003 27.3333 2.66699 23.3333 2.66699 14.6667C2.66699 11.8377 3.7908 9.12458 5.79119 7.12419C7.79157 5.12381 10.5047 4 13.3337 4Z" fill="white"/>
</g>
<path d="M41.66 24V10H44.9V21.36H51.92V24H41.66ZM53.3298 24V13.24H56.4498V24H53.3298ZM54.8898 11.74C54.3165 11.74 53.8498 11.5733 53.4898 11.24C53.1298 10.9067 52.9498 10.4933 52.9498 10C52.9498 9.50667 53.1298 9.09333 53.4898 8.76C53.8498 8.42667 54.3165 8.26 54.8898 8.26C55.4632 8.26 55.9298 8.42 56.2898 8.74C56.6498 9.04667 56.8298 9.44667 56.8298 9.94C56.8298 10.46 56.6498 10.8933 56.2898 11.24C55.9432 11.5733 55.4765 11.74 54.8898 11.74ZM62.0655 24L57.5455 13.24H60.7655L64.5255 22.5H62.9255L66.8255 13.24H69.8255L65.2855 24H62.0655ZM75.9456 24.16C74.719 24.16 73.639 23.92 72.7056 23.44C71.7856 22.96 71.0723 22.3067 70.5656 21.48C70.059 20.64 69.8056 19.6867 69.8056 18.62C69.8056 17.54 70.0523 16.5867 70.5456 15.76C71.0523 14.92 71.739 14.2667 72.6056 13.8C73.4723 13.32 74.4523 13.08 75.5456 13.08C76.599 13.08 77.5456 13.3067 78.3856 13.76C79.239 14.2 79.9123 14.84 80.4056 15.68C80.899 16.5067 81.1456 17.5 81.1456 18.66C81.1456 18.78 81.139 18.92 81.1256 19.08C81.1123 19.2267 81.099 19.3667 81.0856 19.5H72.3456V17.68H79.4456L78.2456 18.22C78.2456 17.66 78.1323 17.1733 77.9056 16.76C77.679 16.3467 77.3656 16.0267 76.9656 15.8C76.5656 15.56 76.099 15.44 75.5656 15.44C75.0323 15.44 74.559 15.56 74.1456 15.8C73.7456 16.0267 73.4323 16.3533 73.2056 16.78C72.979 17.1933 72.8656 17.6867 72.8656 18.26V18.74C72.8656 19.3267 72.9923 19.8467 73.2456 20.3C73.5123 20.74 73.879 21.08 74.3456 21.32C74.8256 21.5467 75.3856 21.66 76.0256 21.66C76.599 21.66 77.099 21.5733 77.5256 21.4C77.9656 21.2267 78.3656 20.9667 78.7256 20.62L80.3856 22.42C79.8923 22.98 79.2723 23.4133 78.5256 23.72C77.779 24.0133 76.919 24.16 75.9456 24.16ZM95.4069 24.24C94.3269 24.24 93.3202 24.0667 92.3869 23.72C91.4669 23.36 90.6669 22.8533 89.9869 22.2C89.3069 21.5467 88.7735 20.78 88.3869 19.9C88.0135 19.02 87.8269 18.0533 87.8269 17C87.8269 15.9467 88.0135 14.98 88.3869 14.1C88.7735 13.22 89.3069 12.4533 89.9869 11.8C90.6802 11.1467 91.4869 10.6467 92.4069 10.3C93.3269 9.94 94.3335 9.76 95.4269 9.76C96.6402 9.76 97.7335 9.97333 98.7069 10.4C99.6935 10.8133 100.52 11.4267 101.187 12.24L99.1069 14.16C98.6269 13.6133 98.0935 13.2067 97.5069 12.94C96.9202 12.66 96.2802 12.52 95.5869 12.52C94.9335 12.52 94.3335 12.6267 93.7869 12.84C93.2402 13.0533 92.7669 13.36 92.3669 13.76C91.9669 14.16 91.6535 14.6333 91.4269 15.18C91.2135 15.7267 91.1069 16.3333 91.1069 17C91.1069 17.6667 91.2135 18.2733 91.4269 18.82C91.6535 19.3667 91.9669 19.84 92.3669 20.24C92.7669 20.64 93.2402 20.9467 93.7869 21.16C94.3335 21.3733 94.9335 21.48 95.5869 21.48C96.2802 21.48 96.9202 21.3467 97.5069 21.08C98.0935 20.8 98.6269 20.38 99.1069 19.82L101.187 21.74C100.52 22.5533 99.6935 23.1733 98.7069 23.6C97.7335 24.0267 96.6335 24.24 95.4069 24.24ZM109.495 13.08C110.348 13.08 111.108 13.2533 111.775 13.6C112.455 13.9333 112.988 14.4533 113.375 15.16C113.762 15.8533 113.955 16.7467 113.955 17.84V24H110.835V18.32C110.835 17.4533 110.642 16.8133 110.255 16.4C109.882 15.9867 109.348 15.78 108.655 15.78C108.162 15.78 107.715 15.8867 107.315 16.1C106.928 16.3 106.622 16.6133 106.395 17.04C106.182 17.4667 106.075 18.0133 106.075 18.68V24H102.955V9.16H106.075V16.22L105.375 15.32C105.762 14.6 106.315 14.0467 107.035 13.66C107.755 13.2733 108.575 13.08 109.495 13.08ZM123.183 24V21.9L122.983 21.44V17.68C122.983 17.0133 122.776 16.4933 122.363 16.12C121.963 15.7467 121.343 15.56 120.503 15.56C119.93 15.56 119.363 15.6533 118.803 15.84C118.256 16.0133 117.79 16.2533 117.403 16.56L116.283 14.38C116.87 13.9667 117.576 13.6467 118.403 13.42C119.23 13.1933 120.07 13.08 120.923 13.08C122.563 13.08 123.836 13.4667 124.743 14.24C125.65 15.0133 126.103 16.22 126.103 17.86V24H123.183ZM119.903 24.16C119.063 24.16 118.343 24.02 117.743 23.74C117.143 23.4467 116.683 23.0533 116.363 22.56C116.043 22.0667 115.883 21.5133 115.883 20.9C115.883 20.26 116.036 19.7 116.343 19.22C116.663 18.74 117.163 18.3667 117.843 18.1C118.523 17.82 119.41 17.68 120.503 17.68H123.363V19.5H120.843C120.11 19.5 119.603 19.62 119.323 19.86C119.056 20.1 118.923 20.4 118.923 20.76C118.923 21.16 119.076 21.48 119.383 21.72C119.703 21.9467 120.136 22.06 120.683 22.06C121.203 22.06 121.67 21.94 122.083 21.7C122.496 21.4467 122.796 21.08 122.983 20.6L123.463 22.04C123.236 22.7333 122.823 23.26 122.223 23.62C121.623 23.98 120.85 24.16 119.903 24.16ZM133.127 24.16C131.86 24.16 130.873 23.84 130.167 23.2C129.46 22.5467 129.107 21.58 129.107 20.3V10.86H132.227V20.26C132.227 20.7133 132.347 21.0667 132.587 21.32C132.827 21.56 133.153 21.68 133.567 21.68C134.06 21.68 134.48 21.5467 134.827 21.28L135.667 23.48C135.347 23.7067 134.96 23.88 134.507 24C134.067 24.1067 133.607 24.16 133.127 24.16ZM127.447 15.88V13.48H134.907V15.88H127.447Z" fill="white"/>
<defs>
<clipPath id="clip0_601_6350">
<rect width="32" height="32" fill="white"/>
</clipPath>
</defs>
</svg>
