<svg width="84" height="25" viewBox="0 0 84 25" fill="none" xmlns="http://www.w3.org/2000/svg">
<path d="M57.0863 1.49084H48.9767L48.9891 9.21753L37.5113 16.3643L35.1505 14.9857L46.6283 7.76672L41.5067 4.50186L29.9555 11.7209L27.9945 10.4145L39.4362 3.23162L34.2784 0.00390625L21.2353 8.16296C19.3911 3.46173 14.6435 1.49187 8.83798 1.49187H0V23.7794H10.8517C15.9888 23.7794 19.9562 21.1233 21.4306 16.8039L34.4603 24.9991L48.985 15.8855L48.9778 23.7783H64.2577V16.6243H57.0873V1.49084H57.0863ZM9.1934 17.098H8.10958V8.46736H9.1934C12.1535 8.46736 13.9585 9.79745 13.9585 12.9313C13.9595 15.8566 11.887 17.098 9.1934 17.098ZM74.1589 1.49084H66.0493V23.7794H81.3293V16.6254H74.1589V1.49084ZM80.2217 1.3536H80.8592V3.00873H81.1133V1.3536H81.7508V1.12865H80.2217V1.3536ZM83.6385 1.12865L83.1033 2.71774H83.0981L82.5609 1.12865H82.1961V3.00873H82.4431V1.89843C82.4431 1.84374 82.4379 1.60538 82.4379 1.43202H82.4431L82.9731 3.00873H83.2252L83.7552 1.42893H83.7604C83.7604 1.60435 83.7552 1.84271 83.7552 1.89843V3.00873H84.0022V1.12865H83.6385Z" fill="white"/>
</svg>
