<svg width="110" height="21" viewBox="0 0 110 21" fill="none" xmlns="http://www.w3.org/2000/svg">
<path d="M44.0728 4.48304C42.1301 4.48304 40.0662 5.30886 38.7307 7.07855V4.83714H34.2384V20.8822H38.7307V11.6798C38.7307 10.0282 40.0662 8.25848 42.4945 8.25848C44.3157 8.25848 46.2584 9.55624 46.2584 11.6798V20.7641H50.7507V10.854C50.8719 7.19659 48.0794 4.48304 44.0728 4.48304ZM83.0462 4.71911L78.9183 15.6909L74.7901 4.71911H69.6909L76.49 20.7641H81.4677L88.1454 4.71911H83.0462ZM29.3819 15.809C27.4393 17.2248 26.3465 17.4608 24.6467 17.4608C23.0685 17.4608 21.8542 16.9889 21.0043 16.1631L32.5385 11.444C32.2957 9.67428 31.5671 8.14045 30.596 6.96073C29.0175 5.19104 26.8321 4.36521 24.0398 4.36521C19.0619 4.36521 15.298 7.90458 15.298 12.6237C15.298 17.4608 19.0619 20.8824 24.5253 20.8824C27.5605 20.8824 30.7173 19.4666 32.1743 17.8147L29.3819 15.809ZM20.6401 9.55624C21.3687 8.49435 22.5826 7.90459 24.1611 7.90459C25.7393 7.90459 27.0749 8.84845 27.682 10.1462L19.7903 13.3317C19.5475 11.7979 20.0332 10.5001 20.6401 9.55624ZM14.9338 16.7528H4.61374V0H0V20.7641H14.9338V16.7528ZM96.2803 21C91.3025 21 87.4172 17.4608 87.4172 12.7415C87.4172 8.14024 91.3023 4.48304 96.2803 4.48304C101.258 4.48304 105.143 8.02242 105.143 12.7415C105.265 17.4608 101.379 21 96.2803 21ZM96.2803 8.25848C93.7305 8.25848 91.9093 10.1462 91.9093 12.7417C91.9093 15.2192 93.8519 17.225 96.2803 17.225C98.8299 17.225 100.651 15.3372 100.651 12.7417C100.772 10.264 98.8296 8.25848 96.2803 8.25848ZM61.4347 21C56.457 21 52.5717 17.4608 52.5717 12.7415C52.5717 8.14024 56.457 4.48304 61.4347 4.48304C66.4127 4.48304 70.2978 8.02242 70.2978 12.7415C70.2978 17.4606 66.4129 21 61.4347 21ZM61.4347 8.25848C58.8851 8.25848 57.0637 10.1462 57.0637 12.7417C57.0637 15.2192 59.0064 17.225 61.4347 17.225C63.9845 17.225 65.8057 15.3372 65.8057 12.7417C65.927 10.264 63.9845 8.25848 61.4347 8.25848ZM105.872 18.8764H105.143V18.5225H107.086V18.8764H106.357V20.7641H105.872V18.8764ZM107.572 18.5227H108.057L108.786 19.5846L109.514 18.5227H110V20.8824H109.514V19.2305L108.786 20.2924L108.057 19.2305V20.8824H107.572V18.5227Z" fill="white"/>
</svg>
