<svg width="41" height="41" viewBox="0 0 41 41" fill="none" xmlns="http://www.w3.org/2000/svg">
<g clip-path="url(#clip0_601_6331)">
<path d="M20.5 41C20.2962 41 20.0933 40.9964 19.8907 40.9905L24.0803 29.4765H29.8459C30.8579 29.4765 31.9688 28.6986 32.3149 27.7481L36.86 15.2634C37.6037 13.2194 36.433 11.5471 34.258 11.5471H26.2592L19.5481 29.9891H19.5455L15.7407 40.4435C6.71413 38.2976 0 30.1832 0 20.5C0 11.0961 6.33222 3.17181 14.9653 0.756792L11.0394 11.5471H11.0383L4.5119 29.4765L8.85648 29.4769L14.4067 14.2414H17.672L12.1218 29.4769L16.4647 29.4777L21.637 15.2634C22.3811 13.2194 21.2102 11.5471 19.0372 11.5471H15.3852L19.5785 0.021544C19.8841 0.00797222 20.191 0 20.4998 0C31.8217 0 40.9998 9.17812 40.9998 20.5C40.9998 31.8218 31.8217 41 20.4998 41H20.5ZM32.9036 14.2304H29.6393L25.0679 26.7732H28.3323L32.9036 14.2304Z" fill="white"/>
</g>
<defs>
<clipPath id="clip0_601_6331">
<rect width="41" height="41" fill="white"/>
</clipPath>
</defs>
</svg>
