<svg width="90" height="21" viewBox="0 0 90 21" fill="none" xmlns="http://www.w3.org/2000/svg">
<path d="M87.788 0.585755C87.788 0.585755 75.0651 -0.999771 71.5556 5.44028L71.5624 5.40569C72.386 0.0542918 61.8215 0.405646 61.8215 0.405646C53.9264 0.432673 50.4901 3.00026 50.4901 3.00026C44.3843 7.13543 44.2423 13.7301 44.2423 13.7301C44.1571 15.2436 44.6778 16.622 44.6778 16.622C43.3714 16.5859 38.7707 16.8203 38.7707 16.8203C35.4575 16.8743 33.7724 16.4959 33.7724 16.4959C31.084 15.9554 31.1218 14.1536 31.1218 14.1536C30.9325 9.84723 33.3369 7.25262 33.3369 7.25262C35.7981 4.0273 41.6295 4.18946 41.6295 4.18946C43.9203 4.18946 46.6469 4.47768 46.6469 4.47768C47.7829 4.65779 47.4989 3.48675 47.4989 3.48675L47.2905 1.93712C47.0829 0.612782 44.9997 0.495592 44.9997 0.495592C40.6262 0.135157 36.5367 0.89192 36.5367 0.89192C29.8533 2.13517 27.3165 6.81089 27.3165 6.81089C28.8784 0.459484 19.535 0.459484 19.535 0.459484C15.4739 0.243266 9.59528 0.648675 9.59528 0.648675C6.81214 0.837865 6.44295 2.32436 6.44295 2.32436L5.87496 4.05411C5.87496 4.05411 5.59097 4.67573 6.58495 4.59465C6.58495 4.59465 12.5488 4.00005 15.7579 4.00005C15.7579 4.00005 21.7502 3.54059 21.6082 6.40548C21.6082 6.40548 21.6366 7.67576 20.3018 7.81089L9.79407 9.29739C9.79407 9.29739 0.251891 10.4596 0.138293 16.0272C0.138293 16.0272 -0.344496 19.9191 6.47135 20.5948C6.47135 20.5948 10.0781 20.9191 13.8836 20.784C13.8836 20.784 19.9229 20.4828 21.5416 19.9693C21.5416 19.9693 23.1938 19.6382 23.6396 18.3658L25.0732 13.892C25.0732 13.892 24.2875 20.5678 33.8106 20.784C33.8106 20.784 39.2821 20.8739 41.8004 20.5857C41.8004 20.5857 44.4888 20.5139 44.8675 19.0363L45.1894 17.5948C45.1894 17.5948 47.3098 20.9461 54.3813 20.9191C54.3813 20.9191 59.7488 21.0002 62.7307 20.7299C62.7307 20.7299 65.1394 20.6065 65.5706 19.2164L66.2238 17.3515C66.2238 17.3515 66.5562 16.6484 65.4002 16.7569C65.4002 16.7569 59.692 17.1083 57.2496 17.1083C57.2496 17.1083 55.2901 17.1083 53.9269 17.0002C53.9269 17.0002 49.7522 16.865 50.1782 13.7028L59.408 12.5677C59.408 12.5677 67.871 11.892 70.5405 8.13522L66.877 19.7569C66.877 19.7569 66.5012 20.6694 67.6438 20.6488H72.2161C72.2161 20.6488 73.0965 20.5948 73.3237 19.7299L77.0724 7.16224C77.0724 7.16224 77.5552 4.37843 81.8151 4.40546C81.8151 4.40546 85.2514 4.32438 87.6653 4.51357C87.6653 4.51357 88.8558 4.62817 89.0853 4.02708L89.6817 2.32436C89.6812 2.32436 90.3444 0.814298 87.788 0.585755ZM18.2305 16.8559C18.2305 16.8559 16.0792 17.1308 12.2262 17.1308C12.2262 17.1308 6.28641 17.3143 6.25415 15.0531C6.25415 15.0531 6.25415 12.6697 9.81816 12.2726L20.1569 10.9891L18.2305 16.8559ZM65.4282 6.59467C64.6046 8.5136 59.1235 9.1082 59.1235 9.1082L50.9161 10.1352C51.0013 8.91901 52.4213 6.67575 52.4213 6.67575C54.0968 3.83789 58.7259 3.83789 58.7259 3.83789C61.4523 3.70275 63.2982 4.08113 63.2982 4.08113C66.5641 4.62168 65.4282 6.59467 65.4282 6.59467Z" fill="white"/>
</svg>
